<svg height="512pt" viewBox="0 -6 512 512" width="512pt" xmlns="http://www.w3.org/2000/svg"><path d="m504.386719 169.417969c-4.203125 0-7.609375-3.40625-7.609375-7.609375v-98.695313c0-.050781-.042969-.09375-.09375-.09375h-27.308594c-4.203125 0-7.609375-3.410156-7.609375-7.613281s3.40625-7.609375 7.609375-7.609375h27.308594c8.445312 0 15.316406 6.871094 15.316406 15.316406v98.695313c0 4.203125-3.40625 7.609375-7.613281 7.609375zm0 0" fill="#426175"/><path d="m481.808594 443.136719-12.15625 51.421875c-1.707032 7.222656-11.984375 7.222656-13.691406 0l-12.15625-51.421875v-431.492188c0-6.429687 5.210937-11.644531 11.640624-11.644531h14.71875c6.433594 0 11.644532 5.214844 11.644532 11.644531zm0 0" fill="#fd715c"/><path d="m481.808594 443.136719-12.15625 51.421875c-1.707032 7.222656-11.984375 7.222656-13.691406 0l-12.15625-51.421875zm0 0" fill="#fed066"/><path d="m443.804688 40.601562h38.003906v29.613282h-38.003906zm0 0" fill="#88dbfd"/><path d="m303.3125 0h-248.621094c-11.195312 0-20.269531 9.074219-20.269531 20.269531v459.433594c0 11.195313 9.074219 20.273437 20.269531 20.273437h332.113282c11.195312 0 20.273437-9.078124 20.273437-20.273437v-375.9375zm0 0" fill="#f2f2f2"/><path d="m407.078125 479.703125v-375.9375l-83.3125-83.308594v107.503907c0 5.777343 4.6875 10.464843 10.46875 10.464843h16.160156v341.277344c0 8.6875-.902343 15.292969-2.488281 20.273437h38.898438c11.195312 0 20.273437-9.078124 20.273437-20.273437zm0 0" fill="#cdd6df"/><path d="m303.3125 93.300781v-93.300781l103.765625 103.765625h-93.300781c-5.78125 0-10.464844-4.6875-10.464844-10.464844zm0 0" fill="#426175"/><path d="m297.554688 499.765625h-282.464844c-8.332032 0-15.089844-6.753906-15.089844-15.085937v-160.886719c0-8.335938 6.757812-15.089844 15.089844-15.089844h282.464844c8.335937 0 15.089843 6.757813 15.089843 15.089844v160.886719c0 8.332031-6.753906 15.085937-15.089843 15.085937zm0 0" fill="#fed066"/><path d="m297.554688 308.703125h-41.078126v191.0625h41.078126c8.335937 0 15.089843-6.753906 15.089843-15.085937v-160.886719c0-8.332031-6.753906-15.089844-15.089843-15.089844zm0 0" fill="#f5b556"/><g fill="#426175"><path d="m268.949219 374.621094h-137.472657c-4.203124 0-7.613281-3.410156-7.613281-7.613282 0-4.203124 3.410157-7.609374 7.613281-7.609374h137.472657c4.203125 0 7.613281 3.40625 7.613281 7.609374 0 4.207032-3.40625 7.613282-7.613281 7.613282zm0 0"/><path d="m268.949219 417.539062h-137.472657c-4.203124 0-7.613281-3.410156-7.613281-7.613281s3.410157-7.609375 7.613281-7.609375h137.472657c4.203125 0 7.613281 3.40625 7.613281 7.609375s-3.40625 7.613281-7.613281 7.613281zm0 0"/><path d="m200.214844 460.457031h-68.738282c-4.203124 0-7.613281-3.40625-7.613281-7.613281 0-4.203125 3.410157-7.609375 7.613281-7.609375h68.738282c4.203125 0 7.609375 3.40625 7.609375 7.609375 0 4.207031-3.40625 7.613281-7.609375 7.613281zm0 0"/></g><path d="m350.394531 160.027344h-259.292969c-4.203124 0-7.609374-3.410156-7.609374-7.613282 0-4.203124 3.40625-7.609374 7.609374-7.609374h259.292969c4.203125 0 7.613281 3.410156 7.613281 7.609374 0 4.203126-3.410156 7.613282-7.613281 7.613282zm0 0" fill="#fed066"/><path d="m350.394531 209.867188h-259.292969c-4.203124 0-7.609374-3.40625-7.609374-7.609376 0-4.207031 3.40625-7.613281 7.609374-7.613281h259.292969c4.203125 0 7.613281 3.410157 7.613281 7.613281 0 4.203126-3.410156 7.609376-7.613281 7.609376zm0 0" fill="#fed066"/><path d="m216.722656 259.707031h-125.621094c-4.203124 0-7.609374-3.410156-7.609374-7.613281s3.40625-7.609375 7.609374-7.609375h125.621094c4.203125 0 7.609375 3.40625 7.609375 7.609375s-3.40625 7.613281-7.609375 7.613281zm0 0" fill="#fed066"/><path d="m153.238281 112.851562h-53.894531c-4.550781 0-8.238281-3.691406-8.238281-8.242187v-53.894531c0-4.554688 3.6875-8.242188 8.238281-8.242188h53.898438c4.550781 0 8.238281 3.691406 8.238281 8.242188v53.894531c0 4.550781-3.691407 8.242187-8.242188 8.242187zm0 0" fill="#46d1c0"/><path d="m84.773438 414.851562h-42.128907c-3.152343 0-5.707031-2.554687-5.707031-5.707031v-42.128906c0-3.152344 2.554688-5.707031 5.707031-5.707031h42.128907c3.152343 0 5.707031 2.554687 5.707031 5.707031v42.128906c0 3.152344-2.554688 5.707031-5.707031 5.707031zm0 0" fill="#f2f2f2"/></svg>