<?xml version="1.0" encoding="UTF-8" standalone="no"?>
<svg
   xmlns:dc="http://purl.org/dc/elements/1.1/"
   xmlns:cc="http://creativecommons.org/ns#"
   xmlns:rdf="http://www.w3.org/1999/02/22-rdf-syntax-ns#"
   xmlns:svg="http://www.w3.org/2000/svg"
   xmlns="http://www.w3.org/2000/svg"
   id="svg7"
   viewBox="0 0 796.78119 612.81537"
   height="612.81537"
   width="796.78119"
   version="1.1">
  <metadata
     id="metadata13">
    <rdf:RDF>
      <cc:Work
         rdf:about="">
        <dc:format>image/svg+xml</dc:format>
        <dc:type
           rdf:resource="http://purl.org/dc/dcmitype/StillImage" />
        <dc:title></dc:title>
      </cc:Work>
    </rdf:RDF>
  </metadata>
  <defs
     id="defs11" />
  <g
     transform="matrix(41.265688,0,0,41.265688,-11521.356,-20585.537)"
     id="layer1">
    <g
       id="g4"
       style="fill:#000000;fill-opacity:1;stroke-linejoin:miter">
      <path
         id="path2"
         d="m 291.3568,498.89935 c -0.22292,0.11142 -0.39406,0.38455 -0.43804,0.69818 -0.024,0.16193 -0.0239,0.20087 0.009,0.35852 0.0708,0.32963 0.22126,0.57087 0.57898,0.91178 0.22205,0.21435 0.38877,0.42889 0.48984,0.62933 0.11146,0.22092 0.20046,0.48282 0.20084,0.58731 1.2e-4,0.0389 0.0107,0.1434 0.0254,0.23148 0.0251,0.16175 0.004,0.49375 -0.0407,0.64142 -0.14789,0.47793 -0.17231,0.52926 -0.35593,0.75525 -0.14484,0.17672 -0.50626,0.52426 -0.6616,0.63546 -0.0817,0.0597 -0.23702,0.18116 -0.34325,0.27167 -0.10828,0.0906 -0.26155,0.20993 -0.34325,0.26758 -0.0838,0.0556 -0.20644,0.1503 -0.27385,0.20787 -0.1532,0.1317 -0.44553,0.31508 -0.60718,0.37917 -0.0675,0.0268 -0.18207,0.0805 -0.25363,0.11973 -0.0839,0.0433 -0.13914,0.0599 -0.15146,0.0476 -0.0103,-0.0102 -0.023,-0.11055 -0.0274,-0.22119 l -0.007,-0.20076 0.0795,-0.1232 c 0.0428,-0.0678 0.10184,-0.16633 0.13034,-0.2197 0.0611,-0.11292 0.11624,-0.15202 0.17374,-0.11945 0.0985,0.0509 0.13524,0.004 0.0714,-0.0925 -0.0206,-0.0306 -0.0269,-0.0655 -0.0187,-0.086 0.008,-0.0205 0.0161,-0.0738 0.018,-0.11888 0.004,-0.0451 0.0363,-0.15175 0.077,-0.23592 0.0386,-0.0841 0.0873,-0.20928 0.10761,-0.27694 0.0203,-0.0677 0.0467,-0.13538 0.0568,-0.14979 0.0102,-0.0123 0.0182,-0.0677 0.018,-0.12097 -0.002,-0.0512 0.006,-0.1373 0.0178,-0.18853 0.0181,-0.0779 0.0356,-0.34028 0.0389,-0.59638 0.002,-0.10245 -0.0798,-0.54474 -0.11697,-0.63473 -0.0434,-0.10639 -0.10728,-0.20454 -0.15656,-0.2392 -0.0205,-0.0142 -0.0822,-0.0653 -0.13974,-0.11424 -0.0575,-0.0489 -0.12943,-0.10198 -0.16022,-0.1162 -0.10055,-0.0509 -0.12938,-0.0856 -0.12964,-0.15527 -3e-4,-0.0861 -0.0332,-0.1044 -0.0903,-0.0509 -0.0572,0.0556 -0.0756,0.0536 -0.29306,-0.007 -0.17228,-0.0506 -0.27288,-0.10968 -0.27308,-0.16501 -1.4e-4,-0.041 -0.0719,-0.0714 -0.0985,-0.0447 -0.0143,0.0144 -0.0245,0.0349 -0.0244,0.0493 1.4e-4,0.043 -0.12874,0.107 -0.26592,0.13207 -0.25592,0.048 -0.2539,0.048 -0.29501,0.003 -0.0637,-0.0694 -0.11287,-0.0549 -0.12692,0.0353 -0.006,0.0431 -0.0263,0.0882 -0.0447,0.10057 -0.0205,0.0103 -0.0797,0.0453 -0.13702,0.0763 -0.13904,0.0783 -0.25556,0.16072 -0.32496,0.23062 -0.0939,0.0966 -0.1874,0.308 -0.21546,0.49045 -0.014,0.0902 -0.0362,0.18658 -0.0505,0.21533 -0.0346,0.0677 -0.025,1.02658 0.008,1.11662 0.0682,0.1739 0.19265,0.6017 0.19283,0.657 1.5e-4,0.041 -0.0181,0.08 -0.0508,0.11084 -0.0878,0.0823 -0.0548,0.13544 0.0577,0.0941 0.0675,-0.0269 0.0634,-0.033 0.19345,0.2431 0.0908,0.19025 0.12012,0.35812 0.0627,0.35834 -0.0594,2.1e-4 -0.31678,-0.35334 -0.4179,-0.56812 -0.0166,-0.0388 -0.0394,-0.12075 -0.0519,-0.18422 -0.0105,-0.0655 -0.0292,-0.1392 -0.0416,-0.1679 -0.0124,-0.0286 -0.0312,-0.12484 -0.0417,-0.21492 -0.009,-0.0901 -0.0274,-0.22324 -0.0379,-0.29698 -0.0125,-0.0737 -0.0377,-0.23958 -0.0566,-0.3686 -0.042,-0.28257 -0.12097,-0.60194 -0.18912,-0.75743 -0.0847,-0.19229 -0.13,-0.26181 -0.26367,-0.39859 -0.1604,-0.16131 -0.26096,-0.2081 -0.49869,-0.22775 -0.12297,-0.0118 -0.13937,-0.008 -0.30297,0.0769 -0.0941,0.0495 -0.1718,0.0969 -0.17176,0.10715 6e-5,0.008 -0.0122,0.0164 -0.0265,0.0165 -0.0307,1.2e-4 -0.141,0.11114 -0.32466,0.32074 -0.15918,0.18503 -0.32604,0.5052 -0.42532,0.81906 -0.0324,0.10254 -0.0786,0.38342 -0.0782,0.48384 4.6e-4,0.13317 0.0686,0.28453 0.15488,0.34157 0.13144,0.0918 0.19882,0.0178 0.10002,-0.10892 -0.0535,-0.0715 -0.0556,-0.0777 -0.0419,-0.26211 0.0156,-0.2377 0.0358,-0.31156 0.174,-0.61939 0.0183,-0.0451 0.0406,-0.0985 0.0467,-0.11902 0.008,-0.0185 0.0224,-0.0349 0.0327,-0.0349 0.0103,-4e-5 0.0306,-0.0329 0.0428,-0.0718 0.0142,-0.0411 0.0447,-0.0883 0.0734,-0.10475 0.0265,-0.0186 0.0531,-0.0535 0.0612,-0.0761 0.0183,-0.0574 0.22241,-0.26099 0.26336,-0.26114 0.0164,-3e-5 0.045,-0.0227 0.0634,-0.0514 0.0183,-0.0288 0.0449,-0.0514 0.0572,-0.0514 0.0123,-3e-5 0.0593,-0.0187 0.10435,-0.0414 0.0879,-0.0454 0.16372,-0.0538 0.18435,-0.0211 0.006,0.0102 0.0349,0.0204 0.0615,0.0203 0.0349,-1.2e-4 0.0595,0.0182 0.0822,0.0612 0.0165,0.0327 0.0432,0.0674 0.0576,0.0756 0.0144,0.008 0.0494,0.0756 0.0763,0.14927 0.0476,0.12484 0.0497,0.1576 0.0512,0.5735 -0.001,0.2418 -0.0124,0.5574 -0.0242,0.6988 -0.0198,0.19674 -0.0193,0.332 -0.002,0.5573 0.0258,0.32774 0.0549,0.4649 0.1313,0.61833 0.11345,0.22702 0.33403,0.60937 0.40197,0.69723 0.0247,0.0348 0.0474,0.0777 0.0475,0.0961 2.5e-4,0.0697 -0.21695,0.0725 -0.3483,0.007 -0.0369,-0.0183 -0.10257,-0.0324 -0.14355,-0.0323 -0.0451,1.4e-4 -0.0984,-0.0161 -0.1292,-0.0405 -0.0288,-0.0225 -0.0698,-0.0407 -0.0924,-0.0407 -0.0697,2.6e-4 -0.4328,-0.13374 -0.55191,-0.20498 -0.10879,-0.0632 -0.63101,-0.57764 -0.72369,-0.71253 -0.0886,-0.12671 -0.17316,-0.29855 -0.31781,-0.64433 -0.11365,-0.27 -0.13877,-0.4236 -0.11936,-0.7269 0.01,-0.18443 0.0237,-0.2562 0.0603,-0.32805 0.0651,-0.12725 0.19555,-0.32031 0.27926,-0.40872 0.11432,-0.12128 0.30596,-0.38217 0.36093,-0.49097 0.0651,-0.13134 0.15233,-0.38166 0.16833,-0.48616 0.0201,-0.1312 0.0107,-0.44056 -0.0143,-0.57365 -0.0146,-0.0676 -0.0314,-0.17813 -0.0398,-0.24573 -0.0106,-0.0901 -0.0478,-0.18835 -0.1365,-0.36218 -0.1073,-0.21066 -0.1464,-0.2638 -0.31916,-0.44144 -0.16449,-0.1654 -0.23024,-0.2184 -0.40064,-0.30798 -0.24426,-0.13028 -0.36315,-0.15032 -0.5371,-0.0903 -0.0839,0.029 -0.14115,0.0681 -0.2228,0.15445 -0.1531,0.16033 -0.20372,0.32855 -0.20054,0.65433 8.4e-4,0.24175 0.0238,0.35232 0.11267,0.5733 0.0579,0.14526 0.0785,0.16775 0.14194,0.1593 0.0614,-0.008 0.0634,-0.0371 0.0133,-0.2828 -0.0375,-0.18424 -0.0427,-0.4793 -0.0103,-0.61054 0.0323,-0.1333 0.10367,-0.23599 0.20184,-0.28756 0.0961,-0.0515 0.2067,-0.0602 0.2417,-0.0172 0.0144,0.0163 0.0514,0.0367 0.0842,0.0427 0.0328,0.008 0.0657,0.0305 0.0719,0.053 0.008,0.0205 0.033,0.0491 0.0575,0.0613 0.0801,0.0407 0.13768,0.10604 0.13782,0.1532 1.2e-4,0.0266 0.0166,0.0512 0.0371,0.0572 0.0431,0.0142 0.11932,0.13273 0.11125,0.17378 -0.004,0.0143 0.0125,0.0471 0.0351,0.0716 0.0535,0.0572 0.0886,0.15131 0.0745,0.19849 -0.008,0.0246 0.004,0.0614 0.029,0.0921 0.0473,0.0592 0.0558,0.15143 0.0192,0.21097 -0.0183,0.0288 -0.0162,0.0472 0.0106,0.086 0.0494,0.0674 0.0435,0.13302 -0.0177,0.21313 -0.0469,0.0637 -0.0489,0.0739 -0.0221,0.12711 0.0371,0.0716 0.031,0.088 -0.0588,0.17846 -0.0612,0.0617 -0.0694,0.0781 -0.0488,0.1149 0.0268,0.0511 0.0126,0.0819 -0.0407,0.0821 -0.0409,1.2e-4 -0.13281,0.0988 -0.15307,0.1665 -0.0101,0.0287 -0.0285,0.039 -0.0573,0.035 -0.0533,-0.008 -0.14104,0.0845 -0.17146,0.17883 -0.0142,0.0431 -0.0346,0.0637 -0.0694,0.0679 -0.0614,0.008 -0.21036,0.19336 -0.19379,0.2445 0.006,0.0266 -0.0203,0.0595 -0.0918,0.1151 -0.10218,0.0782 -0.1449,0.16234 -0.10172,0.20522 0.0473,0.047 0.027,0.11668 -0.0486,0.14975 -0.1187,0.0496 -0.17743,0.22805 -0.0913,0.27487 0.0308,0.0163 0.0411,0.0429 0.0414,0.11252 1.7e-4,0.0512 -0.008,0.0922 -0.0181,0.0923 -0.0266,9e-5 -0.0835,0.13141 -0.0833,0.19493 1e-4,0.0328 0.0187,0.0696 0.0475,0.092 0.0472,0.0388 0.0494,0.0674 0.0322,0.4158 -0.004,0.0799 0.002,0.10449 0.0394,0.13303 0.0801,0.0633 0.11736,0.1676 0.12002,0.33151 0.003,0.17825 0.0151,0.21713 0.0952,0.25577 0.0801,0.0428 0.20172,0.26361 0.19793,0.36196 -0.002,0.0861 0.06,0.16782 0.14002,0.18803 0.0656,0.0161 0.25705,0.26953 0.25729,0.3392 2.8e-4,0.0737 0.0989,0.16153 0.20557,0.18573 0.0594,0.0141 0.12723,0.0549 0.21765,0.13446 0.0719,0.0633 0.13159,0.12656 0.13162,0.13885 1.3e-4,0.0389 0.0639,0.0838 0.1541,0.11213 0.12306,0.0385 0.27492,0.1097 0.28523,0.1342 0.0228,0.0573 -0.18118,0.33058 -0.3283,0.43965 -0.0388,0.0289 -0.11853,0.0885 -0.17575,0.13382 -0.23905,0.18933 -0.67276,0.37118 -1.10883,0.46903 -0.23135,0.052 -0.79475,0.0766 -0.97925,0.0423 -0.38544,-0.0703 -0.52698,-0.11493 -0.66458,-0.20255 -0.22794,-0.14877 -0.29382,-0.24276 -0.29449,-0.42715 -4.3e-4,-0.12292 0.03,-0.22549 0.13367,-0.44305 0.0163,-0.0328 0.0285,-0.0677 0.0284,-0.08 -3e-5,-0.0102 0.0589,-0.14158 0.1301,-0.28934 0.22778,-0.47818 0.2603,-0.56231 0.2984,-0.79196 0.0462,-0.26648 0.006,-0.60443 -0.0929,-0.79053 -0.0537,-0.10019 -0.31263,-0.32875 -0.4563,-0.402 -0.0636,-0.0326 -0.20928,-0.0853 -0.43082,-0.16037 -0.10256,-0.0324 -0.17841,-0.0404 -0.44066,-0.0394 -0.37907,-7.1e-4 -0.5756,0.041 -0.8763,0.18341 -0.24545,0.11969 -0.57434,0.39746 -0.70886,0.60284 -0.14874,0.22797 -0.19336,0.35922 -0.19259,0.57233 8.2e-4,0.23357 0.0321,0.38917 0.0876,0.44842 0.0946,0.10005 0.12927,0.0487 0.14676,-0.21771 0.0136,-0.20084 0.0561,-0.37314 0.1051,-0.41431 0.0163,-0.0123 0.0285,-0.0431 0.0284,-0.0677 -1e-4,-0.0267 0.0244,-0.0677 0.0529,-0.0965 0.0286,-0.0268 0.0612,-0.0699 0.0714,-0.0966 0.0102,-0.0267 0.0449,-0.0575 0.0776,-0.0679 0.0348,-0.0124 0.0797,-0.0535 0.10211,-0.0925 0.0265,-0.0452 0.0571,-0.0699 0.0858,-0.07 0.0266,-8e-5 0.0695,-0.0289 0.10016,-0.0659 0.0408,-0.0473 0.0694,-0.0637 0.11657,-0.0619 0.043,-1.5e-4 0.0778,-0.0167 0.11047,-0.0496 0.0347,-0.037 0.0675,-0.0494 0.13096,-0.0496 0.0451,-1.6e-4 0.10034,-0.0127 0.12284,-0.0291 0.0633,-0.0432 0.16573,-0.06 0.21502,-0.0335 0.0349,0.0183 0.0533,0.0162 0.0881,-0.006 0.0511,-0.033 0.16585,-0.0252 0.23363,0.0197 0.0308,0.0204 0.0554,0.0244 0.0799,0.01 0.0491,-0.0289 0.17624,0.006 0.21944,0.0607 0.0268,0.0307 0.0575,0.0428 0.1026,0.0406 0.0758,-0.004 0.17228,0.0506 0.20738,0.12018 0.0124,0.0266 0.0473,0.0531 0.0739,0.0551 0.0718,0.01 0.1026,0.0406 0.10282,0.10412 1.2e-4,0.0307 0.0146,0.0737 0.0311,0.0962 0.0412,0.0531 0.0393,0.09 -0.0118,0.1435 -0.0347,0.037 -0.0387,0.0513 -0.0161,0.0841 0.035,0.0572 0.009,0.1454 -0.0648,0.2133 -0.045,0.0411 -0.0612,0.076 -0.059,0.11496 0.002,0.0328 0.004,0.0676 0.002,0.0819 -0.004,0.0369 -0.12439,0.1705 -0.15512,0.1706 -0.0308,1e-4 -0.0511,0.0453 -0.0508,0.11288 2.3e-4,0.0676 -0.0955,0.22979 -0.17515,0.29364 -0.0511,0.0411 -0.0694,0.0719 -0.0693,0.11902 2.8e-4,0.082 -0.0851,0.26056 -0.1526,0.31201 -0.0511,0.0411 -0.0531,0.0514 -0.0404,0.15789 0.0168,0.12494 -0.0115,0.22336 -0.0769,0.27894 -0.0368,0.0288 -0.0367,0.0391 -0.0119,0.10659 0.0145,0.0409 0.0537,0.10428 0.0845,0.13901 0.0617,0.0653 0.0721,0.11859 0.0355,0.17812 -0.0183,0.0308 -0.01,0.0554 0.0455,0.13304 0.0371,0.0532 0.0885,0.10211 0.1131,0.10818 0.0677,0.0161 0.10483,0.098 0.0723,0.15958 -0.0224,0.041 -0.0203,0.0574 0.025,0.12692 0.0742,0.11655 0.11116,0.14508 0.1602,0.11418 0.0204,-0.0144 0.0491,-0.0248 0.0614,-0.0248 0.041,-1.4e-4 0.16222,0.10188 0.16235,0.13465 3.4e-4,0.0922 0.17905,0.22678 0.23215,0.17335 0.0551,-0.0555 0.25204,0.007 0.30562,0.0993 0.033,0.0573 0.15,0.12243 0.21763,0.1222 0.0164,-7e-5 0.0471,-0.0145 0.0655,-0.031 0.0286,-0.0267 0.0634,-0.0289 0.17202,-0.019 0.11682,0.0119 0.14558,0.022 0.2052,0.0812 0.0596,0.0572 0.0863,0.0694 0.16412,0.0691 0.0738,-2.8e-4 0.10242,-0.0106 0.14326,-0.0559 0.0408,-0.0452 0.0735,-0.0556 0.1739,-0.0641 0.11064,-0.009 0.13115,-0.005 0.18663,0.0444 0.10272,0.0836 0.28297,0.0584 0.33789,-0.0483 0.0244,-0.0493 0.0489,-0.0616 0.17386,-0.0846 0.13308,-0.0251 0.15152,-0.0251 0.20697,0.007 0.11495,0.0672 0.31549,-0.0155 0.35397,-0.14468 0.0101,-0.0308 0.051,-0.0596 0.14102,-0.0927 0.0696,-0.0248 0.13916,-0.0558 0.15344,-0.0661 0.0184,-0.0144 0.0348,-0.0124 0.0492,0.002 0.0678,0.0674 0.27655,-0.0154 0.32532,-0.12817 0.0366,-0.0821 0.237,-0.19345 0.3558,-0.19592 0.0451,-1.5e-4 0.1045,-0.002 0.13315,-0.007 0.0451,-0.006 0.0512,-2e-4 0.0453,0.0551 -0.01,0.12091 -0.15214,0.43287 -0.26834,0.59512 -0.1264,0.1767 -0.4846,0.8725 -0.5698,1.10843 -0.0203,0.0554 -0.0589,0.16416 -0.0873,0.23798 -0.0264,0.0759 -0.0689,0.21741 -0.0931,0.3179 -0.0242,0.1005 -0.0525,0.21534 -0.0626,0.2543 -0.0405,0.15177 -0.0805,0.40799 -0.0802,0.49817 1.7e-4,0.0533 -0.0179,0.16397 -0.0401,0.24601 -0.0344,0.12921 -0.0382,0.19686 -0.0309,0.53692 0.007,0.32984 0.02,0.44248 0.0764,0.73734 0.0375,0.1904 0.075,0.36645 0.0833,0.389 0.14475,0.3806 0.24573,0.5421 0.39359,0.63584 0.076,0.0469 0.0924,0.0488 0.45706,0.0476 0.30325,-10e-4 0.3811,-0.007 0.40148,-0.0301 0.0122,-0.0164 0.0899,-0.0659 0.1697,-0.1071 0.15337,-0.0805 0.33928,-0.2328 0.5659,-0.4631 0.12864,-0.12945 0.2224,-0.27325 0.5462,-0.82965 0.0713,-0.12525 0.13645,-0.22992 0.14463,-0.23615 0.008,-0.006 0.0265,-0.0431 0.0428,-0.0821 0.0548,-0.13749 0.15258,-0.30787 0.31768,-0.54819 0.0937,-0.13761 0.23834,-0.3942 0.33395,-0.5892 0.15863,-0.32633 0.16877,-0.35917 0.18661,-0.53343 0.0357,-0.34225 0.006,-0.629 -0.0871,-0.8827 -0.0434,-0.1146 -0.19815,-0.40706 -0.27225,-0.50926 -0.068,-0.094 -0.0926,-0.11441 -0.14177,-0.11426 -0.082,3.2e-4 -0.0962,0.0352 -0.11174,0.27702 -0.0194,0.30334 -0.0657,0.54116 -0.18116,0.92266 -0.0283,0.0902 -0.0585,0.24606 -0.0705,0.34857 -0.0634,0.61287 -0.0988,1.02277 -0.0984,1.1518 3.7e-4,0.10653 -0.024,0.16197 -0.19513,0.44122 -0.20779,0.34082 -0.66046,0.96125 -0.70349,0.96135 -0.008,1e-4 -0.047,0.0268 -0.0838,0.0597 -0.0367,0.0309 -0.0899,0.0659 -0.11856,0.0742 -0.0287,0.008 -0.0696,0.031 -0.092,0.0516 -0.0551,0.0494 -0.12263,0.0824 -0.16769,0.0825 -0.0205,10e-5 -0.0491,0.0186 -0.0634,0.0412 -0.0183,0.0308 -0.047,0.0412 -0.11459,0.0414 -0.0492,2e-4 -0.0942,0.009 -0.0983,0.0188 -0.002,0.0102 -0.0389,0.004 -0.0779,-0.0162 -0.0472,-0.0223 -0.0739,-0.0489 -0.0782,-0.0816 -0.004,-0.0287 -0.0208,-0.0696 -0.0352,-0.0921 -0.033,-0.0552 -0.041,-0.6125 -0.0132,-0.84 0.0279,-0.2111 0.0763,-0.45924 0.0987,-0.50233 0.0102,-0.0185 0.0344,-0.10669 0.0525,-0.19687 0.0202,-0.0902 0.0403,-0.1866 0.0464,-0.2153 0.006,-0.0287 0.0263,-0.08 0.0467,-0.11697 0.0204,-0.0349 0.0548,-0.13133 0.0791,-0.21536 0.0243,-0.0821 0.0567,-0.1908 0.075,-0.24207 0.0527,-0.16205 0.26834,-0.6013 0.37027,-0.74915 0.053,-0.0801 0.16504,-0.25878 0.24652,-0.40042 0.0835,-0.14163 0.22006,-0.33883 0.30371,-0.44156 0.0857,-0.1007 0.16934,-0.20137 0.18564,-0.22399 0.0531,-0.0719 0.6185,-0.65784 0.68189,-0.7052 0.0776,-0.0597 0.15542,-0.0764 0.29274,-0.0584 0.1189,0.0139 0.13945,0.0282 0.2424,0.17536 0.0989,0.13898 0.23668,0.2901 0.3065,0.33496 0.0349,0.0224 0.0862,0.0612 0.11505,0.0877 0.0288,0.0265 0.0719,0.0571 0.0986,0.0673 0.0246,0.0101 0.0555,0.0408 0.0658,0.0674 0.0145,0.0368 0.0391,0.0551 0.0965,0.0631 0.13531,0.0221 0.14968,0.0302 0.16629,0.0978 0.0166,0.0655 0.0187,0.0655 0.16418,0.0753 0.13321,0.008 0.1517,0.0159 0.17438,0.0608 0.0227,0.047 0.0391,0.0511 0.19897,0.0608 0.0963,0.006 0.23358,0.003 0.30731,-0.007 0.0737,-0.008 0.23962,-0.0255 0.36866,-0.0361 0.12906,-0.0127 0.29496,-0.0318 0.36866,-0.0464 0.12282,-0.0251 0.13305,-0.0312 0.14312,-0.0886 0.008,-0.0513 0.0223,-0.0615 0.0919,-0.0761 0.16174,-0.0333 0.17196,-0.0375 0.17796,-0.0846 0.004,-0.0349 0.0244,-0.0493 0.0879,-0.0618 0.13103,-0.0291 0.18013,-0.06 0.19828,-0.13184 0.0122,-0.0492 0.0325,-0.0698 0.0735,-0.0801 0.10239,-0.0209 0.14734,-0.0477 0.14722,-0.0865 -1.8e-4,-0.0472 0.0877,-0.12943 0.18995,-0.17486 0.0552,-0.0248 0.0756,-0.0474 0.0755,-0.0822 -2.4e-4,-0.0635 0.0365,-0.0964 0.11234,-0.0967 0.0348,-1.3e-4 0.0819,-0.0147 0.10437,-0.0311 0.0511,-0.0391 0.15149,-0.0395 0.18033,-6.1e-4 0.0123,0.0184 0.0698,0.0366 0.12924,0.0425 0.10657,0.014 0.1374,0.0425 0.17886,0.17764 0.006,0.0205 0.0391,0.0408 0.076,0.0489 0.0718,0.0141 0.20142,0.16937 0.2037,0.24313 10e-5,0.0245 0.0331,0.0798 0.0763,0.12264 0.0823,0.0878 0.16686,0.2576 0.1816,0.36815 0.004,0.0389 0.027,0.0982 0.0517,0.1289 0.0226,0.0327 0.0412,0.0736 0.0413,0.088 5e-5,0.0164 0.006,0.0368 0.0145,0.043 0.0247,0.0245 0.10755,0.28852 0.1098,0.34385 9e-5,0.0287 0.0188,0.09 0.0414,0.13711 0.0227,0.045 0.0413,0.10434 0.0414,0.12689 6e-5,0.0246 0.008,0.0615 0.0208,0.0819 0.0103,0.0204 0.0229,0.0962 0.0272,0.16791 0.004,0.0717 0.0169,0.14749 0.0293,0.16998 0.0371,0.0716 0.0438,0.21498 0.0264,0.51208 -0.0309,0.51444 -0.045,0.6108 -0.1,0.69087 -0.0224,0.0308 -0.0386,0.0883 -0.0384,0.13946 3e-4,0.0901 -0.0281,0.16403 -0.0731,0.19083 -0.0164,0.0103 -0.0285,0.0513 -0.0284,0.0984 2.1e-4,0.0615 -0.0119,0.0943 -0.0507,0.12925 -0.0286,0.0267 -0.051,0.0616 -0.051,0.08 3.1e-4,0.0902 -0.0961,0.0619 -0.17843,-0.0526 -0.0947,-0.1267 -0.19345,-0.23903 -0.27362,-0.31047 -0.14182,-0.12448 -0.24463,-0.23477 -0.32495,-0.35126 -0.1092,-0.1615 -0.27213,-0.47235 -0.27228,-0.51947 -9e-5,-0.0225 -0.008,-0.0553 -0.0187,-0.0757 -0.0103,-0.0184 -0.0372,-0.10028 -0.0621,-0.17804 -0.0228,-0.0798 -0.0601,-0.20264 -0.0829,-0.27632 -0.0767,-0.25585 -0.10378,-0.3807 -0.12914,-0.60393 -0.0276,-0.25809 -0.0565,-0.32355 -0.1384,-0.31302 -0.13106,0.0148 -0.26066,0.45165 -0.3381,1.15469 -0.0576,0.52271 -0.0281,0.75003 0.15154,1.13666 0.0558,0.12476 0.0578,0.12683 0.1877,0.3538 0.0577,0.1043 0.11947,0.1819 0.17492,0.22274 0.0801,0.0571 0.34491,0.18926 0.53778,0.26642 0.27084,0.10764 0.66638,0.13904 0.8157,0.0647 0.10227,-0.0516 0.36362,-0.3086 0.42673,-0.42357 0.14457,-0.25253 0.26621,-0.62378 0.36087,-1.08716 0.0725,-0.35064 0.092,-0.63345 0.0603,-0.90173 -0.0698,-0.61854 -0.0573,-0.55096 -0.17951,-0.93164 -0.0249,-0.0798 -0.058,-0.1944 -0.0726,-0.25586 -0.0146,-0.0614 -0.0332,-0.12284 -0.0414,-0.133 -0.006,-0.0123 -0.0248,-0.0614 -0.0394,-0.11261 -0.0145,-0.0511 -0.0723,-0.17797 -0.12805,-0.2843 -0.0557,-0.10431 -0.1011,-0.2066 -0.10117,-0.22503 -9e-5,-0.0184 -0.0104,-0.0451 -0.0227,-0.0573 -0.0267,-0.0265 -0.037,-0.0449 -0.1484,-0.24736 -0.11753,-0.21268 -0.49165,-0.55356 -0.7133,-0.65112 -0.1744,-0.0752 -0.4123,-0.12762 -0.58026,-0.12705 -0.11887,4.3e-4 -0.36252,0.0402 -0.45459,0.0733 -0.18622,0.0683 -0.40905,0.21045 -0.57242,0.3647 -0.045,0.0432 -0.0879,0.0781 -0.0981,0.0782 -0.008,0 -0.0777,0.0413 -0.15335,0.0927 -0.0756,0.0515 -0.15744,0.0928 -0.18408,0.0929 -0.043,1.6e-4 -0.17395,0.058 -0.36615,0.16315 -0.0818,0.0433 -0.088,0.0454 -0.15367,0.0108 -0.12722,-0.0631 -0.16018,-0.10803 -0.16057,-0.21661 -5.5e-4,-0.15982 0.0382,-0.21322 0.17743,-0.2424 0.14737,-0.0313 0.27214,-0.0932 0.272,-0.1362 -6e-5,-0.0164 0.0326,-0.0452 0.0735,-0.0617 0.0593,-0.0248 0.0942,-0.027 0.17823,-0.009 0.0656,0.012 0.13117,0.0138 0.16803,0.003 0.12689,-0.0373 0.25366,-0.10949 0.26581,-0.14847 0.0122,-0.0389 0.1062,-0.1028 0.15335,-0.10296 0.0123,-4e-5 0.0472,0.0183 0.08,0.0427 l 0.0575,0.0408 0.11864,-0.0537 c 0.12684,-0.0558 0.15953,-0.0845 0.143,-0.12753 -0.008,-0.0266 0.0878,-0.0884 0.139,-0.0886 0.0143,-6e-5 0.0534,0.0285 0.0842,0.0612 0.0432,0.0511 0.0637,0.0592 0.11081,0.0488 0.14945,-0.0374 0.19852,-0.0622 0.22497,-0.11551 0.0509,-0.10879 0.22096,-0.0909 0.23368,0.0217 0.006,0.0471 0.0166,0.0532 0.0965,0.0591 0.12092,0.008 0.17822,-0.009 0.22925,-0.0663 0.0387,-0.0432 0.0511,-0.0473 0.10849,-0.029 0.0841,0.0284 0.11493,0.0549 0.11508,0.0979 6e-5,0.0205 0.0145,0.0471 0.0309,0.0614 0.0432,0.0367 0.22959,0.032 0.27246,-0.007 0.0306,-0.0288 0.045,-0.0289 0.1373,0.004 0.08,0.0284 0.10465,0.0447 0.10892,0.0857 0.0168,0.11262 0.1604,0.17154 0.26878,0.10764 0.0552,-0.033 0.0593,-0.033 0.14144,0.0221 0.0842,0.055 0.0945,0.0693 0.0886,0.13489 -0.006,0.0595 0.0783,0.11035 0.17657,0.10797 0.0779,-0.002 0.10248,0.008 0.16416,0.065 0.0596,0.0572 0.0679,0.0735 0.0496,0.10844 -0.0326,0.0575 -0.0284,0.0779 0.023,0.12491 0.0329,0.0306 0.0677,0.0408 0.11896,0.0365 0.0594,-0.004 0.0779,0.004 0.117,0.0631 0.035,0.0511 0.0433,0.0879 0.0353,0.14331 -0.01,0.0676 -0.004,0.0758 0.0577,0.10426 0.0472,0.0203 0.0822,0.0612 0.1152,0.13072 l 0.0475,0.0981 -0.0429,0.0473 c -0.0551,0.0596 -0.0405,0.12103 0.0395,0.16376 0.0862,0.0427 0.16708,0.31087 0.10574,0.34797 -0.0348,0.0206 -0.022,0.14556 0.017,0.18023 0.0206,0.0204 0.0472,0.0347 0.0575,0.0347 0.0389,-1.6e-4 0.13825,0.272 0.13447,0.37036 -0.004,0.10449 0.0561,0.2026 0.12161,0.20239 0.0205,-9e-5 0.0698,0.0367 0.10684,0.0816 0.0371,0.047 0.0885,0.10828 0.11316,0.13892 0.0268,0.0307 0.0474,0.0839 0.0476,0.11865 2.7e-4,0.0758 0.0723,0.15138 0.14603,0.15112 0.0266,-9e-5 0.0738,0.0202 0.10464,0.0468 0.0308,0.0265 0.0781,0.0653 0.10687,0.0877 0.0288,0.0204 0.0535,0.0572 0.0535,0.0818 1.5e-4,0.0389 0.0125,0.0553 0.11322,0.14507 0.0432,0.0388 0.1333,0.0385 0.15778,-5.7e-4 0.0102,-0.0164 0.0184,-0.0124 0.0266,0.008 0.008,0.0225 0.0288,0.0286 0.0616,0.0223 0.0553,-0.0104 0.2235,0.0484 0.25848,0.0892 0.0288,0.0347 0.18454,0.0383 0.21722,0.005 0.0225,-0.0226 0.22327,-0.0172 0.3811,0.0109 0.0574,0.0121 0.0902,0.006 0.13312,-0.023 0.0817,-0.0556 0.18814,-0.097 0.27008,-0.10138 0.11475,-0.007 0.15973,-0.0292 0.2025,-0.0991 0.0632,-0.10266 0.16936,-0.19522 0.23287,-0.20368 0.0594,-0.006 0.10427,-0.0638 0.12443,-0.16021 0.006,-0.0287 0.0468,-0.0924 0.0937,-0.13967 0.0531,-0.0596 0.0816,-0.10887 0.0815,-0.14372 -10e-5,-0.0307 0.0242,-0.11484 0.0547,-0.1846 0.0406,-0.10052 0.0487,-0.13948 0.0322,-0.16605 -0.0123,-0.0184 -0.0167,-0.0819 -0.0107,-0.14135 0.006,-0.0799 -4.3e-4,-0.11884 -0.0293,-0.16175 -0.0206,-0.0327 -0.0351,-0.0859 -0.0332,-0.12079 0.004,-0.0492 -0.0105,-0.0819 -0.0578,-0.1268 -0.0329,-0.0348 -0.0617,-0.0736 -0.0618,-0.0858 -1.6e-4,-0.0389 -0.23242,-0.25327 -0.3186,-0.29395 -0.0452,-0.0224 -0.0904,-0.0509 -0.0986,-0.0652 -0.008,-0.0164 -0.0349,-0.0286 -0.0554,-0.0285 -0.0369,1.4e-4 -0.10047,-0.0201 -0.19898,-0.0669 -0.0636,-0.0284 -0.14356,-0.0364 -0.40991,-0.0374 -0.22333,-0.001 -0.23155,8e-4 -0.38495,0.0751 -0.0859,0.0413 -0.17584,0.0949 -0.20038,0.11753 -0.0225,0.0206 -0.0531,0.0391 -0.0654,0.0391 -0.0389,1.6e-4 -0.15322,0.13373 -0.15304,0.17881 3e-4,0.0901 0.10275,0.0877 0.28682,-0.005 0.20863,-0.10526 0.30278,-0.13425 0.4544,-0.13477 0.51628,-0.002 0.9128,0.29795 0.95323,0.72605 0.0107,0.1188 0.007,0.1598 -0.0258,0.23572 -0.0447,0.1026 -0.24472,0.33075 -0.32855,0.37608 -0.2802,0.14854 -0.3027,0.1568 -0.5423,0.18837 -0.25394,0.0358 -0.28675,0.0318 -0.4755,-0.0454 -0.0452,-0.0183 -0.11908,-0.0569 -0.1642,-0.0855 -0.0452,-0.0285 -0.10887,-0.0652 -0.1417,-0.0814 -0.1601,-0.0814 -0.47492,-0.46753 -0.55146,-0.67627 -0.0642,-0.17804 -0.16192,-0.58951 -0.16224,-0.68378 -0.002,-0.12088 -0.065,-0.4075 -0.13332,-0.6142 -0.0621,-0.18212 -0.11374,-0.29461 -0.25808,-0.56048 -0.10725,-0.19837 -0.34785,-0.44544 -0.66834,-0.68607 -0.4314,-0.32425 -0.47246,-0.34665 -0.94641,-0.52936 -0.31183,-0.11981 -0.39182,-0.14413 -0.59479,-0.17205 -0.0902,-0.012 -0.22754,-0.032 -0.3075,-0.044 -0.20498,-0.0321 -0.84628,-0.0257 -0.93836,0.009 -0.1064,0.0393 -0.1188,0.007 -0.0269,-0.0778 0.0572,-0.0514 0.0838,-0.0658 0.1002,-0.0495 0.035,0.0347 0.121,0.0262 0.1946,-0.0191 0.0491,-0.0309 0.0654,-0.0556 0.0652,-0.10062 -1.4e-4,-0.0451 0.0182,-0.0759 0.0672,-0.11293 0.0797,-0.0617 0.12676,-0.0681 0.15356,-0.021 0.0145,0.0266 0.0391,0.0326 0.10462,0.0221 0.0983,-0.0126 0.14526,-0.0455 0.14508,-0.0988 -6e-5,-0.0226 0.0122,-0.039 0.0265,-0.039 0.0164,-6e-5 0.045,-0.0186 0.0654,-0.0412 0.049,-0.0535 0.10431,-0.0516 0.13522,0.002 0.0206,0.0389 0.035,0.0429 0.13126,0.0323 0.10237,-0.0106 0.22101,-0.0705 0.25973,-0.13 0.0224,-0.0349 0.11472,-0.0106 0.12512,0.0344 0.0208,0.0778 0.32795,0.0357 0.35428,-0.0484 0.0162,-0.0513 0.10022,-0.0475 0.13934,0.006 0.0247,0.0368 0.0493,0.0429 0.13947,0.0426 0.14548,-0.005 0.21509,-0.0213 0.22928,-0.0582 0.0122,-0.0328 0.15558,-0.0415 0.1557,-0.0108 3e-5,0.0102 0.0145,0.0348 0.0309,0.0511 0.0555,0.0551 0.26023,0.0114 0.39103,-0.0813 0.0388,-0.0288 0.047,-0.0268 0.0963,0.01 0.0863,0.0673 0.18253,0.0444 0.38897,-0.0915 0.0511,-0.035 0.0593,-0.035 0.10654,-0.004 0.0719,0.0469 0.21113,0.0238 0.23548,-0.0398 0.0264,-0.0718 0.19408,-0.16048 0.272,-0.14638 0.08,0.014 0.19858,-0.0499 0.19838,-0.10928 -1e-4,-0.0226 0.0285,-0.0575 0.0673,-0.0822 0.0348,-0.0227 0.0818,-0.0597 0.10012,-0.0823 0.0204,-0.0247 0.0572,-0.0432 0.0859,-0.0433 0.0697,-2.4e-4 0.1513,-0.0907 0.14082,-0.15213 -0.0146,-0.0676 0.10968,-0.27493 0.17316,-0.29155 0.0634,-0.0187 0.11842,-0.12334 0.0834,-0.1642 -0.0391,-0.047 0.0155,-0.2459 0.087,-0.31995 0.0632,-0.0658 0.0712,-0.12933 0.026,-0.18859 -0.0391,-0.0511 -0.0397,-0.21088 -10e-4,-0.27863 0.0428,-0.076 0.0365,-0.12311 -0.0315,-0.22327 -0.0515,-0.0756 -0.0619,-0.11038 -0.0623,-0.21896 -4.3e-4,-0.11884 -0.005,-0.13113 -0.058,-0.16168 -0.0616,-0.0367 -0.14813,-0.16952 -0.14835,-0.23099 -1.5e-4,-0.041 -0.0598,-0.10633 -0.0967,-0.1062 -0.0123,7e-5 -0.0719,-0.0551 -0.13357,-0.12043 -0.0905,-0.098 -0.12135,-0.12045 -0.16022,-0.11007 -0.0246,0.006 -0.0512,0.004 -0.0594,-0.006 -0.0412,-0.0613 -0.13765,-0.11016 -0.21553,-0.1099 -0.0471,2e-4 -0.1066,-0.014 -0.13327,-0.0323 -0.039,-0.0286 -0.0636,-0.0305 -0.15577,-0.0118 -0.0593,0.0125 -0.12493,0.0169 -0.14749,0.0128 -0.0246,-0.006 -0.0716,0.0105 -0.11868,0.0414 -0.0429,0.0288 -0.0941,0.0536 -0.11456,0.0537 -0.0205,9e-5 -0.0654,0.031 -0.10218,0.0701 -0.0347,0.039 -0.0837,0.0761 -0.1083,0.0823 -0.0266,0.006 -0.0552,0.0392 -0.0714,0.0843 -0.0162,0.0452 -0.0448,0.0821 -0.0755,0.0925 -0.0327,0.0124 -0.049,0.035 -0.0489,0.0678 8e-5,0.0287 -0.0182,0.0738 -0.0406,0.10256 -0.0735,0.0925 -0.1239,0.30366 -0.1272,0.53318 -0.003,0.2807 0.0279,0.36047 0.21497,0.53604 0.14184,0.13266 0.18701,0.15506 0.21756,0.10578 0.0265,-0.0431 0.004,-0.10245 -0.0869,-0.2312 -0.14621,-0.20234 -0.15487,-0.3355 -0.0474,-0.65348 0.11761,-0.3446 0.40768,-0.58536 0.70275,-0.58642 0.14136,-5e-4 0.3323,0.11566 0.4784,0.2893 0.12964,0.15116 0.13788,0.1675 0.22476,0.39875 0.093,0.24345 0.0875,0.39718 -0.022,0.73355 -0.0588,0.18255 -0.16669,0.37964 -0.26466,0.4845 -0.23064,0.2487 -0.61733,0.4099 -1.1191,0.467 -0.30313,0.0318 -0.88098,0.0215 -1.37903,-0.03 -0.1127,-0.01 -0.20904,-0.0156 -0.21927,-0.009 -0.008,0.006 -0.1618,0.019 -0.34002,0.0299 -0.34003,0.0217 -0.44855,0.0446 -1.00733,0.20025 -0.16989,0.0477 -0.51553,0.2313 -0.6933,0.3651 -0.14305,0.1091 -0.29025,0.2018 -0.32302,0.20193 -0.0102,7e-5 0.0408,-0.0493 0.12252,-0.11927 0.0122,-0.0103 0.0429,-0.0473 0.0714,-0.0842 0.0265,-0.037 0.0918,-0.10076 0.14291,-0.1419 0.14505,-0.11933 0.70434,-0.72168 0.79402,-0.85517 0.0163,-0.0246 0.0591,-0.076 0.0959,-0.11508 0.0613,-0.0658 0.0959,-0.12533 0.27289,-0.47218 0.055,-0.10677 0.12384,-0.33034 0.16409,-0.5333 0.0101,-0.0513 0.0279,-0.23164 0.0396,-0.39967 0.0194,-0.30331 0.0108,-0.42215 -0.0497,-0.73746 -0.0105,-0.0573 -0.023,-0.13307 -0.0313,-0.16995 -0.006,-0.0369 -0.0187,-0.0716 -0.029,-0.0777 -0.0103,-0.006 -0.0186,-0.0307 -0.0187,-0.0573 -9e-5,-0.0246 -0.008,-0.0532 -0.0166,-0.0635 -0.0103,-0.0123 -0.0309,-0.0613 -0.0455,-0.11248 -0.11609,-0.3848 -0.38779,-0.73218 -1.00852,-1.2873 -0.27951,-0.24896 -0.4096,-0.5292 -0.38397,-0.81412 0.0138,-0.15167 0.0321,-0.20706 0.10332,-0.32818 0.11613,-0.19299 0.25932,-0.25702 0.47053,-0.21062 0.18047,0.0403 0.22962,0.0442 0.2439,0.0217 0.0326,-0.0513 -0.0168,-0.10648 -0.14606,-0.16953 -0.18475,-0.0895 -0.34457,-0.0972 -0.48777,-0.027 z" />
    </g>
  </g>
</svg>
