<svg id="Layer_1" enable-background="new 0 0 512 512" height="512" viewBox="0 0 512 512" width="512" xmlns="http://www.w3.org/2000/svg"><g><g fill="#f7f4f4"><path d="m170.667 150.258v-30.791c0-9.426 7.641-17.067 17.067-17.067h42.666c9.426 0 17.067-7.641 17.067-17.067s-7.641-17.067-17.067-17.067h-17.067c-9.426 0-17.067-7.641-17.067-17.067s7.641-17.067 17.067-17.067h51.2c9.426 0 17.067-7.641 17.067-17.067 0-9.424-7.641-17.065-17.067-17.065h-221.866c-9.426 0-17.067 7.641-17.067 17.067s7.641 17.067 17.067 17.067h59.733c9.425 0 17.067 7.641 17.067 17.067s-7.641 17.067-17.067 17.067h-17.067c-9.426 0-17.067 7.641-17.067 17.067s7.641 17.067 17.067 17.067h17.067c9.425 0 17.067 7.641 17.067 17.067v30.791h51.2z"/><path d="m366.933 34.133c9.426 0 17.067-7.641 17.067-17.067 0-9.425-7.641-17.066-17.067-17.066h-34.133c-9.426 0-17.067 7.641-17.067 17.067s7.641 17.067 17.067 17.067h34.133z"/></g><path d="m366.933 0h-23.703c9.426 0 17.067 7.641 17.067 17.067s-7.641 17.067-17.067 17.067h23.703c9.426 0 17.067-7.641 17.067-17.067s-7.641-17.067-17.067-17.067z" fill="#ded7eb"/><g fill="#ded7eb"><path d="m230.4 68.267h-17.067c-9.426 0-17.067-7.641-17.067-17.067s7.641-17.067 17.067-17.067h-23.101c-9.426 0-17.067 7.641-17.067 17.067s7.641 17.067 17.067 17.067h17.067c9.426 0 17.067 7.641 17.067 17.067s-7.641 17.067-17.067 17.067h23.101c9.426 0 17.067-7.641 17.067-17.067s-7.641-17.067-17.067-17.067z"/><path d="m147.566 119.467v30.791h23.101v-30.791c0-9.426 7.641-17.067 17.067-17.067h-23.101c-9.426 0-17.067 7.641-17.067 17.067z"/><path d="m264.533 0h-23.101c9.426 0 17.067 7.641 17.067 17.067s-7.641 17.067-17.067 17.067h23.101c9.426 0 17.067-7.641 17.067-17.067s-7.641-17.067-17.067-17.067z"/></g><g><path d="m221.867 164.486v84.021c0 4.981.545 9.947 1.626 14.809l15.442 69.487h14.491v90.602h-217.37l-1.923-13.805 32.508-146.285c1.08-4.862 1.626-9.828 1.626-14.809v-84.021h153.6z" fill="#a9d5a5"/><path d="m238.934 332.803-15.442-69.487c-1.08-4.862-1.626-9.828-1.626-14.809v-84.021h-23.694v84.021c0 4.981.545 9.947 1.626 14.809l33.28 149.53v10.559h20.346v-90.602z" fill="#91c1a4"/></g><path d="m68.267 197.073h153.6v15.453h-153.6z" fill="#91c1a4"/><path d="m17.067 484.7v-58.034c0-9.426 7.641-17.067 17.067-17.067h216.716v75.1h-233.783z" fill="#d2ac87"/><path d="m232.356 409.6h18.493v75.1h-18.493z" fill="#c8947b"/><path d="m230.933 170.667h-171.733c-4.418 0-8-3.582-8-8v-18.133c0-4.418 3.582-8 8-8h171.733c4.418 0 8 3.582 8 8v18.133c0 4.418-3.581 8-8 8z" fill="#f4da6f"/><path d="m230.692 136.533h-23.694c4.552 0 8.241 3.69 8.241 8.242v17.65c0 4.551-3.69 8.241-8.241 8.241h23.694c4.552 0 8.241-3.69 8.241-8.241v-17.65c0-4.552-3.69-8.242-8.241-8.242z" fill="#ecb75e"/><path d="m398.852 358.4h44.882c9.426 0 17.067 7.641 17.067 17.067v109.233h34.133v-126.3c0-18.851-15.282-34.133-34.133-34.133h-61.948v34.133z" fill="#465e7b"/><path d="m460.8 436.007h34.133v15.453h-34.133z" fill="#3a4e65"/><path d="m460.8 324.267h-23.694c18.851 0 34.133 15.282 34.133 34.133v126.3h23.694v-126.3c0-18.851-15.282-34.133-34.133-34.133z" fill="#3a4e65"/><path d="m409.6 443.733-85.333 17.067-85.333-17.067v-137.117c0-9.103 7.38-16.483 16.483-16.483h137.701c9.103 0 16.483 7.38 16.483 16.483v137.117z" fill="#f4da6f"/><g><path d="m324.264 417.328c-.956 0-1.926-.178-2.867-.555-3.962-1.585-5.889-6.081-4.305-10.043l12.828-32.071h-22.72c-2.563 0-4.961-1.272-6.398-3.395s-1.728-4.82-.776-7.201l17.066-42.667c1.585-3.963 6.085-5.891 10.043-4.304 3.962 1.585 5.889 6.081 4.305 10.043l-12.828 32.07h22.72c2.563 0 4.961 1.272 6.398 3.395s1.727 4.82.776 7.201l-17.066 42.667c-1.208 3.023-4.11 4.86-7.176 4.86z" fill="#465e7b"/></g><path d="m393.117 290.133h-23.694c9.103 0 16.483 7.38 16.483 16.483v141.856l23.694-4.739v-137.117c0-9.103-7.38-16.483-16.483-16.483z" fill="#ecb75e"/><g><path d="m426.667 484.7h-204.8v-32.967c0-4.418 3.582-8 8-8h188.8c4.418 0 8 3.582 8 8z" fill="#465e7b"/><path d="m418.425 443.733h-23.694c4.552 0 8.241 3.69 8.241 8.241v32.726h23.694v-32.725c.001-4.552-3.689-8.242-8.241-8.242z" fill="#3a4e65"/></g><path d="m504 512h-496c-4.418 0-8-3.582-8-8v-18.133c0-4.418 3.582-8 8-8h496c4.418 0 8 3.582 8 8v18.133c0 4.418-3.582 8-8 8z" fill="#f7f4f4"/><path d="m503.759 477.867h-23.694c4.552 0 8.241 3.69 8.241 8.241v17.651c0 4.551-3.69 8.241-8.241 8.241h23.694c4.552 0 8.241-3.69 8.241-8.241v-17.651c0-4.551-3.69-8.241-8.241-8.241z" fill="#ded7eb"/></g></svg>