<svg id="Capa_1" enable-background="new 0 0 512 512" height="512" viewBox="0 0 512 512" width="512" xmlns="http://www.w3.org/2000/svg"><g><path d="m22.185 104.418h467.63v303.163h-467.63z" fill="#eff5f6"/><path d="m22.185 104.419h19.832v303.163h-19.832z" fill="#eff5f6"/><path d="m22.185 104.419v33.887h411.255c11.861 0 21.476 9.615 21.476 21.476v247.8h34.898v-303.163z" fill="#cbe5e7"/><g><g><path d="m501.698 109.718h-491.396c-5.69 0-10.302-4.613-10.302-10.302v-19.91c0-5.69 4.612-10.302 10.302-10.302h491.396c5.69 0 10.302 4.612 10.302 10.302v19.91c0 5.689-4.612 10.302-10.302 10.302z" fill="#557983"/><path d="m512 79.502v19.911c0 5.697-4.615 10.302-10.302 10.302h-33.234c5.687 0 10.302-4.605 10.302-10.302v-19.911c0-5.687-4.615-10.302-10.302-10.302h33.234c5.687.001 10.302 4.616 10.302 10.302z" fill="#3f5959"/></g><g><path d="m501.698 442.799h-491.396c-5.69 0-10.302-4.612-10.302-10.301v-19.91c0-5.69 4.612-10.302 10.302-10.302h491.396c5.69 0 10.302 4.612 10.302 10.302v19.91c0 5.689-4.612 10.301-10.302 10.301z" fill="#557983"/><path d="m512 412.584v19.911c0 5.697-4.615 10.302-10.302 10.302h-33.234c5.687 0 10.302-4.605 10.302-10.302v-19.911c0-5.687-4.615-10.302-10.302-10.302h33.234c5.687 0 10.302 4.616 10.302 10.302z" fill="#3f5959"/></g></g><g><g><g><g><g><path d="m121.291 333.822c-1.877 0-3.747-.681-5.218-2.028l-21.114-19.329-15.954 9.688c-3.648 2.215-8.4 1.053-10.614-2.594-2.215-3.647-1.053-8.399 2.594-10.614l20.907-12.695c2.937-1.783 6.695-1.413 9.227.905l20.581 18.842 91.177-70.769c3.364-2.61 8.206-2.008 10.826 1.347l14.304 18.309 41.104-26.749c3.574-2.327 8.362-1.316 10.69 2.262 2.328 3.576 1.315 8.363-2.262 10.69l-47.043 30.615c-3.36 2.188-7.834 1.441-10.303-1.719l-13.926-17.825-90.24 70.042c-1.398 1.085-3.069 1.622-4.736 1.622z" fill="#24d1f8"/></g><g><path d="m283.326 368.766h-213.795c-4.267 0-7.726-3.459-7.726-7.726s3.459-7.726 7.726-7.726h213.795c4.268 0 7.726 3.459 7.726 7.726 0 4.266-3.458 7.726-7.726 7.726z" fill="#90bac4"/></g></g><g><path d="m84.701 267.619h-9.707c-4.267 0-7.726-3.459-7.726-7.726s3.459-7.726 7.726-7.726h9.707c4.267 0 7.726 3.459 7.726 7.726.001 4.266-3.459 7.726-7.726 7.726z" fill="#1785f8"/></g><g><path d="m84.701 242.509h-9.707c-4.267 0-7.726-3.459-7.726-7.726s3.459-7.726 7.726-7.726h9.707c4.267 0 7.726 3.459 7.726 7.726s-3.459 7.726-7.726 7.726z" fill="#1785f8"/></g></g></g><g><g><path d="m442.469 341.386h-122.24c-4.268 0-7.726-3.459-7.726-7.726s3.459-7.726 7.726-7.726h122.24c4.268 0 7.726 3.459 7.726 7.726s-3.459 7.726-7.726 7.726z" fill="#90bac4"/></g><g><path d="m442.469 368.766h-122.24c-4.268 0-7.726-3.459-7.726-7.726s3.459-7.726 7.726-7.726h122.24c4.268 0 7.726 3.459 7.726 7.726 0 4.266-3.459 7.726-7.726 7.726z" fill="#90bac4"/></g></g><g><g><path d="m442.469 314.007h-122.24c-4.268 0-7.726-3.459-7.726-7.726s3.459-7.726 7.726-7.726h122.24c4.268 0 7.726 3.459 7.726 7.726s-3.459 7.726-7.726 7.726z" fill="#90bac4"/></g></g><g><g><path d="m355.227 195.025h-24.697c-5.69 0-10.302-4.612-10.302-10.302v-24.697c0-5.69 4.612-10.302 10.302-10.302h24.697c5.69 0 10.302 4.612 10.302 10.302v24.697c0 5.69-4.613 10.302-10.302 10.302z" fill="#24d1f8"/><path d="m365.526 160.024v24.704c0 5.687-4.605 10.302-10.302 10.302h-22.643c5.687 0 10.302-4.615 10.302-10.302v-24.704c0-5.687-4.615-10.302-10.302-10.302h22.643c5.697 0 10.302 4.615 10.302 10.302z" fill="#21c1f8"/></g><g><path d="m432.167 195.03h-24.697c-5.69 0-10.302-4.612-10.302-10.302v-24.697c0-5.69 4.612-10.302 10.302-10.302h24.697c5.69 0 10.302 4.612 10.302 10.302v24.697c0 5.689-4.612 10.302-10.302 10.302z" fill="#fb4a59"/><path d="m442.466 160.029v24.693c0 5.697-4.605 10.302-10.302 10.302h-22.643c5.687 0 10.302-4.605 10.302-10.302v-24.693c0-5.687-4.615-10.302-10.302-10.302h22.643c5.698 0 10.302 4.616 10.302 10.302z" fill="#f82f40"/></g></g><g><g><path d="m442.467 285.387c-4.268 0-7.726-3.459-7.726-7.726v-56.75c0-4.267 3.459-7.726 7.726-7.726s7.726 3.459 7.726 7.726v56.75c0 4.267-3.459 7.726-7.726 7.726z" fill="#f5a871"/></g><g><path d="m415.423 285.387c-4.268 0-7.726-3.459-7.726-7.726v-35.724c0-4.267 3.459-7.726 7.726-7.726s7.726 3.459 7.726 7.726v35.724c0 4.267-3.459 7.726-7.726 7.726z" fill="#f5a871"/></g><g><path d="m388.378 285.387c-4.268 0-7.726-3.459-7.726-7.726v-25.212c0-4.267 3.459-7.726 7.726-7.726s7.726 3.459 7.726 7.726v25.212c.001 4.267-3.458 7.726-7.726 7.726z" fill="#f5a871"/></g><g><path d="m361.335 285.387c-4.268 0-7.726-3.459-7.726-7.726v-46.237c0-4.267 3.459-7.726 7.726-7.726s7.726 3.459 7.726 7.726v46.237c0 4.267-3.458 7.726-7.726 7.726z" fill="#f5a871"/></g></g></g><g><path d="m231.286 157.448h-156.292c-4.267 0-7.726-3.459-7.726-7.726s3.459-7.726 7.726-7.726h156.291c4.267 0 7.726 3.459 7.726 7.726s-3.458 7.726-7.725 7.726z" fill="#90bac4"/></g><g><path d="m115.194 184.989h-40.2c-4.267 0-7.726-3.459-7.726-7.726s3.459-7.726 7.726-7.726h40.2c4.267 0 7.726 3.459 7.726 7.726s-3.459 7.726-7.726 7.726z" fill="#fb4a59"/></g></g></svg>